<?xml version="1.0" encoding="UTF-8" standalone="no"?>
<!-- Created with Inkscape (http://www.inkscape.org/) -->

<svg
   xmlns:dc="http://purl.org/dc/elements/1.1/"
   xmlns:cc="http://creativecommons.org/ns#"
   xmlns:rdf="http://www.w3.org/1999/02/22-rdf-syntax-ns#"
   xmlns:svg="http://www.w3.org/2000/svg"
   xmlns="http://www.w3.org/2000/svg"
   xmlns:sodipodi="http://sodipodi.sourceforge.net/DTD/sodipodi-0.dtd"
   xmlns:inkscape="http://www.inkscape.org/namespaces/inkscape"
   width="16"
   height="16"
   viewBox="0 0 4.2333332 4.2333335"
   id="svg2"
   version="1.1"
   inkscape:version="0.92.2 2405546, 2018-03-11"
   sodipodi:docname="IconNewSoundGroup.svg">
  <defs
     id="defs4" />
  <sodipodi:namedview
     id="base"
     pagecolor="#393939"
     bordercolor="#666666"
     borderopacity="1.0"
     inkscape:pageopacity="0"
     inkscape:pageshadow="2"
     inkscape:zoom="31.94"
     inkscape:cx="9.7896878"
     inkscape:cy="6.9530957"
     inkscape:document-units="px"
     inkscape:current-layer="layer1"
     showgrid="true"
     units="px"
     inkscape:window-width="1260"
     inkscape:window-height="777"
     inkscape:window-x="2038"
     inkscape:window-y="1136"
     inkscape:window-maximized="0"
     showborder="true"
     objecttolerance="4"
     gridtolerance="4"
     guidetolerance="5">
    <inkscape:grid
       type="xygrid"
       id="grid4173"
       empspacing="1"
       visible="true" />
  </sodipodi:namedview>
  <metadata
     id="metadata7">
    <rdf:RDF>
      <cc:Work
         rdf:about="">
        <dc:format>image/svg+xml</dc:format>
        <dc:type
           rdf:resource="http://purl.org/dc/dcmitype/StillImage" />
        <dc:title />
      </cc:Work>
    </rdf:RDF>
  </metadata>
  <g
     inkscape:label="Layer 1"
     inkscape:groupmode="layer"
     id="layer1"
     transform="translate(0,-292.76665)">
    <path
       style="opacity:1;fill:#04e2ff;fill-opacity:1;fill-rule:evenodd;stroke:none;stroke-width:1.67643285;stroke-miterlimit:4;stroke-dasharray:none;stroke-opacity:1"
       d="m 1.3229167,293.04538 c 0.2645833,0 0.5291666,0.25044 0.5291666,0.51502 l 0,0.26458 1.8488138,0.0102 c 0.3165926,0.002 0.5239173,0.20975 0.5245413,0.52471 l 0.00313,1.57936 c 6.239e-4,0.31495 -0.2079439,0.53411 -0.5245413,0.53411 l -3.17666623,0 C 0.21076252,296.47339 0,296.2566 0,295.94165 c 4.054e-5,-0.82258 0,-2.38125 0,-2.38125 0,-0.26458 0.26458333,-0.51612 0.52916667,-0.51612 z"
       id="rect4141"
       inkscape:connector-curvature="0"
       sodipodi:nodetypes="cccssssscccc" />
    <path
       id="path1184"
       title="sin(x*4*pi)*sin(x*pi)"
       d="m 0.52916699,295.1479 c 0.11759258,-1.5e-4 0.23518516,-0.18652 0.35277774,-0.31191 0.11759258,-0.1254 0.23518517,-0.1236 0.35277777,0.10832 0.1175926,0.23193 0.2351851,0.66463 0.3527777,0.89812 0.1175926,0.23349 0.2351852,0.20457 0.3527778,-0.10832 0.1175925,-0.3129 0.2351851,-0.85907 0.3527777,-1.17242 0.1175926,-0.31334 0.2351852,-0.3414 0.3527777,-0.10832 0.1175926,0.23308 0.2351852,0.66584 0.3527778,0.89812 0.1175926,0.23228 0.2351851,0.23355 0.3527778,0.10832 0.1175925,-0.12522 0.235185,-0.31176 0.3527777,-0.31191"
       style="fill:none;fill-opacity:1;stroke:#000000;stroke-width:0.396875;stroke-linecap:round;stroke-miterlimit:4;stroke-dasharray:none;stroke-opacity:1;paint-order:normal"
       inkscape:connector-curvature="0" />
    <path
       id="path5876"
       style="fill:#ff0000;fill-rule:evenodd;stroke:#df0000;stroke-width:0.26458332;stroke-linecap:round;stroke-linejoin:miter;stroke-miterlimit:4;stroke-dasharray:none;stroke-opacity:1"
       d="m 2.8386428,295.07809 0.9362114,0.93622 m -0.9362104,-1e-5 0.9362094,-0.9362 m -1.1301062,0.4681 1.324003,0 m -0.6620015,0.662 0,-1.324" />
  </g>
</svg>
