<?xml version="1.0" encoding="UTF-8" standalone="no"?>
<!-- Created with Inkscape (http://www.inkscape.org/) -->

<svg
   xmlns:dc="http://purl.org/dc/elements/1.1/"
   xmlns:cc="http://creativecommons.org/ns#"
   xmlns:rdf="http://www.w3.org/1999/02/22-rdf-syntax-ns#"
   xmlns:svg="http://www.w3.org/2000/svg"
   xmlns="http://www.w3.org/2000/svg"
   xmlns:sodipodi="http://sodipodi.sourceforge.net/DTD/sodipodi-0.dtd"
   xmlns:inkscape="http://www.inkscape.org/namespaces/inkscape"
   width="20"
   height="20"
   viewBox="0 0 5.2916665 5.2916668"
   version="1.1"
   id="svg8"
   inkscape:version="0.92.2 2405546, 2018-03-11"
   sodipodi:docname="IconFX.svg">
  <defs
     id="defs2" />
  <sodipodi:namedview
     id="base"
     pagecolor="#353535"
     bordercolor="#666666"
     borderopacity="1.0"
     inkscape:pageopacity="0"
     inkscape:pageshadow="2"
     inkscape:zoom="42.15"
     inkscape:cx="31.643198"
     inkscape:cy="20.391101"
     inkscape:document-units="px"
     inkscape:current-layer="layer1"
     showgrid="true"
     units="px"
     inkscape:window-width="3840"
     inkscape:window-height="2079"
     inkscape:window-x="0"
     inkscape:window-y="40"
     inkscape:window-maximized="1"
     gridtolerance="10"
     showguides="false"
     objecttolerance="17">
    <inkscape:grid
       type="xygrid"
       id="grid817"
       empspacing="0"
       spacingx="0.52916666"
       spacingy="0.52916666"
       visible="true" />
  </sodipodi:namedview>
  <metadata
     id="metadata5">
    <rdf:RDF>
      <cc:Work
         rdf:about="">
        <dc:format>image/svg+xml</dc:format>
        <dc:type
           rdf:resource="http://purl.org/dc/dcmitype/StillImage" />
        <dc:title></dc:title>
      </cc:Work>
    </rdf:RDF>
  </metadata>
  <g
     inkscape:label="Layer 1"
     inkscape:groupmode="layer"
     id="layer1"
     transform="translate(0,-291.70832)">
    <g
       aria-label="fx"
       style="font-style:normal;font-variant:normal;font-weight:normal;font-stretch:normal;font-size:5.17202616px;line-height:1.25;font-family:'Noto Serif';-inkscape-font-specification:'Noto Serif';letter-spacing:0px;word-spacing:0px;fill:#fffffa;fill-opacity:1;stroke:none;stroke-width:0.96975476"
       id="text5280">
      <path
         d="m 0.31713132,296.97813 q -0.0775804,0 -0.16033281,-0.0155 -0.08792445,-0.0104 -0.13964471,-0.0259 l 0.04654823,-0.23792 q 0.04137621,0.0103 0.11378458,0.0207 0.0672363,0.0155 0.12412863,0.0155 0.25342928,0 0.39824601,-0.21723 0.13964471,-0.21722 0.25342928,-0.73442 L 1.4963533,293.25945 H 1.0256989 l 0.031032,-0.1862 0.4965145,-0.10861 0.056892,-0.28446 q 0.082752,-0.43962 0.3206656,-0.68271 0.2379132,-0.24308 0.6620193,-0.24308 0.3310097,0 0.4965145,0.10861 0.1706769,0.10344 0.1706769,0.27412 0,0.17067 -0.1137846,0.25343 -0.1086125,0.0827 -0.3154936,0.0827 0,-0.19654 -0.05172,-0.33618 -0.05172,-0.14482 -0.2120531,-0.14482 -0.191365,0 -0.2948055,0.16033 -0.1034405,0.15516 -0.1655048,0.481 l -0.067236,0.33101 H 2.613511 L 2.556619,293.2594 H 1.9773517 l -0.5378907,2.51877 q -0.098269,0.46031 -0.2534293,0.71891 -0.1551608,0.26378 -0.37238587,0.37239 -0.2172251,0.10861 -0.49651451,0.10861 z"
         style="font-style:italic;font-variant:normal;font-weight:normal;font-stretch:normal;font-family:'Noto Serif';-inkscape-font-specification:'Noto Serif Italic';fill:#fffffa;fill-opacity:1;stroke-width:0.96975476"
         id="path5282"
         inkscape:connector-curvature="0" />
      <path
         d="m 2.28436,295.73685 0.056892,-0.21723 h 0.067236 q 0.098269,0 0.1706769,-0.0259 0.07758,-0.0259 0.1603328,-0.10344 0.082752,-0.0776 0.206881,-0.22757 l 0.6620194,-0.80166 -0.3361817,-0.80684 q -0.093097,-0.2224 -0.1603328,-0.2948 -0.062064,-0.0776 -0.2120531,-0.0776 h -0.067236 l 0.041376,-0.21723 H 3.56185 l 0.3930739,1.04475 0.6878795,-1.04475 h 0.6361592 l -0.056892,0.21723 h -0.067236 q -0.098268,0 -0.1758489,0.031 -0.07758,0.031 -0.1603328,0.11378 -0.082752,0.0776 -0.201709,0.22757 l -0.5430628,0.69823 0.3568698,0.89476 q 0.082752,0.22757 0.1499888,0.29997 0.072408,0.0724 0.2223971,0.0724 h 0.067236 l -0.041376,0.21723 H 4.1359454 L 3.7170112,294.599 2.9412073,295.73685 Z"
         style="font-style:italic;font-variant:normal;font-weight:normal;font-stretch:normal;font-family:'Noto Serif';-inkscape-font-specification:'Noto Serif Italic';fill:#fffffa;fill-opacity:1;stroke-width:0.96975476"
         id="path5284"
         inkscape:connector-curvature="0" />
    </g>
  </g>
</svg>
